<?xml version="1.0" encoding="UTF-8" standalone="no"?>
<!-- Created with Inkscape (http://www.inkscape.org/) -->

<svg
   width="93.502579mm"
   height="107.00273mm"
   viewBox="0 0 93.502579 107.00273"
   version="1.1"
   id="svg193"
   inkscape:version="1.2.2 (732a01da63, 2022-12-09)"
   sodipodi:docname="logo.svg"
   xmlns:inkscape="http://www.inkscape.org/namespaces/inkscape"
   xmlns:sodipodi="http://sodipodi.sourceforge.net/DTD/sodipodi-0.dtd"
   xmlns="http://www.w3.org/2000/svg"
   xmlns:svg="http://www.w3.org/2000/svg">
  <sodipodi:namedview
     id="namedview195"
     pagecolor="#ffffff"
     bordercolor="#000000"
     borderopacity="0.25"
     inkscape:showpageshadow="2"
     inkscape:pageopacity="0.0"
     inkscape:pagecheckerboard="0"
     inkscape:deskcolor="#d1d1d1"
     inkscape:document-units="mm"
     showgrid="false"
     inkscape:zoom="0.914906"
     inkscape:cx="236.08983"
     inkscape:cy="355.22775"
     inkscape:window-width="2560"
     inkscape:window-height="1369"
     inkscape:window-x="-8"
     inkscape:window-y="760"
     inkscape:window-maximized="1"
     inkscape:current-layer="layer1" />
  <defs
     id="defs190" />
  <g
     inkscape:label="Layer 1"
     inkscape:groupmode="layer"
     id="layer1"
     transform="translate(-42.608984,-54.367185)">
    <path
       style="fill:#000000;stroke-width:0.264583"
       d="m 78.897258,161.05126 c -1.34191,-0.67898 -1.67307,-2.79153 -0.67612,-4.31309 0.79365,-1.21126 1.96257,-1.73416 3.44903,-1.54289 0.72761,0.0936 1.34925,0.19302 1.38144,0.22088 0.0322,0.0279 -0.0775,1.15561 -0.24381,2.50611 -0.25483,2.06967 -0.24324,2.49351 0.0738,2.69757 0.32255,0.20763 0.31959,0.27919 -0.0208,0.50263 -0.53464,0.35096 -0.67395,0.33491 -1.05255,-0.12127 -0.28507,-0.34349 -0.41336,-0.34349 -1.07759,0 -0.90884,0.46996 -0.99864,0.47242 -1.8334,0.0501 z m 2.53439,-1.40151 c 0.23905,-0.57213 0.36475,-1.54189 0.31723,-2.4474 -0.075,-1.42896 -0.11417,-1.50385 -0.82971,-1.58577 -1.48766,-0.17031 -2.62954,1.9648 -2.02708,3.79028 0.31249,0.94685 0.56095,1.13619 1.53481,1.1696 0.45731,0.0157 0.70735,-0.21493 1.00475,-0.92671 z m 11.09521,1.38361 c -0.44069,-0.32224 -0.47144,-0.6111 -0.30981,-2.91042 0.16377,-2.32978 0.13854,-2.55413 -0.28893,-2.56944 -0.37048,-0.0133 -0.346,-0.066 0.11711,-0.25242 0.32202,-0.1296 0.73761,-0.47925 0.92355,-0.77698 0.45177,-0.7234 0.73994,-0.68347 0.73994,0.10255 0,0.49931 0.16337,0.66863 0.7276,0.75411 0.70497,0.10679 0.70193,0.11146 -0.0977,0.14987 l -0.82528,0.0396 -0.30701,2.39389 c -0.16885,1.31663 -0.23693,2.50726 -0.15129,2.64583 0.0856,0.13857 0.41658,0.26031 0.73541,0.27054 0.5589,0.0179 0.56071,0.0268 0.0505,0.24599 -0.72896,0.31324 -0.76151,0.31093 -1.31415,-0.0932 z m 9.159972,-0.10528 c -0.15161,-0.28937 -0.12177,-1.28585 0.0796,-2.65698 0.27904,-1.9002 0.26919,-2.22361 -0.0736,-2.41544 -0.33441,-0.18714 -0.31521,-0.26461 0.12381,-0.49956 0.98894,-0.52927 1.24971,-0.0139 1.05471,2.08426 -0.0982,1.05668 -0.24835,2.19929 -0.33364,2.53912 -0.12044,0.47988 -0.0453,0.61975 0.33663,0.62629 0.46966,0.008 0.46868,0.0258 -0.0219,0.39687 -0.66466,0.50272 -0.87002,0.48959 -1.1656,-0.0746 z m 10.87678,0.17317 c -1.62049,-0.47811 -2.17165,-2.83607 -1.05178,-4.49967 0.78465,-1.16562 1.7719,-1.63487 2.96766,-1.41055 1.3108,0.24591 1.9834,1.19545 1.9834,2.80005 0,1.093 -0.13195,1.43119 -0.8599,2.20399 -0.9702,1.02995 -1.7907,1.2746 -3.03938,0.90618 z m 2.16019,-0.65469 c 0.95708,-0.95708 0.88496,-3.85681 -0.11609,-4.66741 -0.75438,-0.61087 -0.87977,-0.59912 -1.76809,0.16562 -0.66294,0.57073 -0.7414,0.8094 -0.73338,2.2311 0.007,1.17505 0.13863,1.73528 0.50402,2.13904 0.58836,0.65012 1.53604,0.70915 2.11354,0.13165 z m 14.90283,0.57673 c -0.29592,-0.29592 -0.31887,-0.76583 -0.11738,-2.40413 0.29044,-2.36168 0.0132,-2.95103 -1.24035,-2.63642 -0.91681,0.23011 -1.41714,1.2219 -1.67662,3.32354 -0.16595,1.34402 -0.30781,1.70004 -0.70816,1.77713 -0.45536,0.0877 -0.48527,-0.0257 -0.33073,-1.25316 0.52968,-4.2071 0.52954,-3.93775 0.002,-4.0478 -0.4464,-0.0932 -0.43504,-0.1354 0.11847,-0.44055 0.68285,-0.37645 1.37215,-0.0343 1.37215,0.68116 0,0.27659 0.23374,0.19132 0.81405,-0.29698 0.98645,-0.83004 1.65064,-0.86612 2.38708,-0.12969 0.57672,0.57673 0.57814,0.65186 0.0758,4.00877 -0.12235,0.81766 -0.0689,0.99219 0.30406,0.99219 0.37225,0 0.39409,0.0704 0.12315,0.39688 -0.40894,0.49274 -0.65376,0.49907 -1.12376,0.0291 z m -71.036409,-0.2275 c 0.535422,-0.40539 1.456833,-7.14156 0.997794,-7.29457 -0.61672,-0.20558 -0.216027,-0.57678 0.622599,-0.57678 0.608272,0 0.957257,0.14929 1.082337,0.46302 0.101528,0.25466 0.542006,1.47505 0.978836,2.71198 0.436833,1.23692 0.886585,2.34637 0.999451,2.46543 0.112866,0.11906 0.965049,-1.1004 1.893739,-2.70989 l 1.688528,-2.92636 1.058334,0.004 c 1.041805,0.004 1.049618,0.0109 0.500369,0.46094 -0.448461,0.36742 -0.61722,0.96038 -0.859896,3.02136 -0.387892,3.29428 -0.381055,4.3712 0.0288,4.53659 0.181901,0.0734 -0.317106,0.14285 -1.108904,0.15432 -1.205235,0.0175 -1.368673,-0.0329 -1.003815,-0.30984 0.31115,-0.23612 0.547626,-1.19983 0.826695,-3.36901 0.214985,-1.67105 0.363096,-3.06606 0.329137,-3.10002 -0.03396,-0.034 -0.862637,1.3035 -1.841506,2.97213 -0.978868,1.66864 -1.8821,3.03389 -2.007179,3.03389 -0.125079,0 -0.687332,-1.30968 -1.24945,-2.91041 -0.562115,-1.60073 -1.092131,-2.91042 -1.177814,-2.91042 -0.08568,0 -0.309848,1.38226 -0.498147,3.07169 -0.289396,2.59645 -0.285805,3.10753 0.0232,3.30325 0.245142,0.15526 0.02204,0.23287 -0.677177,0.23559 -0.890378,0.003 -0.978927,-0.0443 -0.605943,-0.32668 z m 43.685709,-7.46181 c -0.18619,-0.48521 0.0848,-0.93871 0.56092,-0.93871 0.54453,0 0.75084,0.49953 0.38725,0.93763 -0.40704,0.49045 -0.76022,0.49086 -0.94817,0.001 z m -20.853332,-7.32546 c -2.38401,-0.54942 -3.58888,-2.4483 -3.58888,-5.65611 0,-0.89641 0.30293,-3.92414 0.67318,-6.72828 0.62811,-4.75697 0.64429,-5.14255 0.24171,-5.75697 -0.3624,-0.55309 -0.59727,-0.64271 -1.46694,-0.55978 -0.81444,0.0777 -1.03545,0.008 -1.03545,-0.32514 0,-1.09224 3.04546,-2.55069 4.68423,-2.24325 1.21097,0.22718 2.40921,1.32218 2.60833,2.38359 0.0917,0.48904 -0.14258,3.25006 -0.52071,6.13561 -0.79982,6.10347 -0.82965,6.98135 -0.27681,8.14637 0.98133,2.06801 4.3248,1.99058 6.42674,-0.14884 1.74247,-1.77353 2.46201,-3.90787 3.09645,-9.18491 0.39291,-3.26802 0.39182,-3.57194 -0.015,-4.1928 -0.36999,-0.56467 -0.60055,-0.65393 -1.47405,-0.57063 -0.5695,0.0543 -1.03546,-0.002 -1.03546,-0.12408 0,-1.51949 3.53113,-2.9853 5.34388,-2.2183 1.20729,0.51083 1.82181,1.2806 1.97403,2.47275 0.0711,0.557 -0.23663,3.88375 -0.68388,7.39278 -0.44726,3.50902 -0.8132,6.74497 -0.8132,7.19099 0,1.11774 0.66386,1.71556 1.76264,1.58728 0.7667,-0.0895 0.8832,-0.0257 0.8832,0.48364 0,1.22006 -3.25702,2.44433 -5.12827,1.92766 -1.20088,-0.33158 -1.88403,-1.34984 -2.12517,-3.16767 -0.0952,-0.71779 -0.23153,-1.30508 -0.3029,-1.30508 -0.0714,0 -0.83041,0.71603 -1.68675,1.59118 -2.32613,2.37725 -5.0993,3.43268 -7.54095,2.86999 z m 25.588062,0.0303 c -2.17334,-0.48033 -3.08417,-1.9341 -3.06271,-4.88833 0.007,-1.01865 0.33508,-4.42929 0.72818,-7.5792 0.3931,-3.14992 0.67586,-6.06695 0.62835,-6.4823 -0.0801,-0.70042 -0.1787,-0.76106 -1.35963,-0.83648 -1.68677,-0.10773 -1.58505,-0.7224 0.22044,-1.3321 2.0199,-0.68211 2.9477,-1.47869 3.7628,-3.23065 0.56915,-1.22329 0.85905,-1.56874 1.31829,-1.57089 0.50021,-0.002 0.56763,0.1066 0.44853,0.72485 -0.0771,0.40018 -0.16341,1.44198 -0.19182,2.3151 l -0.0517,1.5875 2.44739,0.0761 c 1.34607,0.0418 2.4474,0.18093 2.4474,0.30909 0,0.94028 -0.32497,1.07004 -2.67981,1.07004 -2.19486,0 -2.37613,0.0413 -2.61083,0.59531 -0.38935,0.91903 -1.91516,14.99823 -1.73151,15.97722 0.18715,0.99755 1.24683,1.9483 2.17154,1.9483 0.34885,0 1.0382,-0.16877 1.53189,-0.37504 0.78733,-0.32897 0.91641,-0.32604 1.05069,0.0239 0.22306,0.5813 0.0115,0.79238 -1.24043,1.2375 -1.45689,0.518 -2.76455,0.66497 -3.8271,0.43013 z m 16.80515,-0.0322 c -6.54068,-0.88402 -9.51509,-8.22181 -6.16017,-15.19699 1.04898,-2.18091 3.24477,-4.4078 5.32239,-5.39778 1.57593,-0.75092 4.73443,-1.0081 6.6721,-0.54325 5.84004,1.401 8.24804,8.69053 5.0144,15.17965 -0.92673,1.85973 -2.45896,3.57603 -4.13283,4.62931 -2.05061,1.29034 -4.06006,1.68801 -6.71589,1.32906 z m 4.60415,-1.58455 c 2.78941,-1.395 4.4025,-6.31931 3.6925,-11.2722 -0.68675,-4.79076 -2.74382,-7.47747 -5.7251,-7.47747 -3.55235,0 -5.85138,3.31931 -6.13908,8.86354 -0.39585,7.62813 3.43047,12.25722 8.17168,9.88613 z m -85.727258,0.91605 c 0.0674,-0.56938 0.303065,-0.77999 1.209212,-1.08072 0.704419,-0.23378 1.481013,-0.78584 2.07576,-1.47561 1.749808,-2.02938 13.335206,-23.97357 13.335206,-25.25854 0,-0.32812 0.922584,-0.57389 2.171608,-0.57849 l 0.980985,-0.004 0.562599,1.91822 c 0.309433,1.05503 0.978371,3.28745 1.486533,4.96094 1.289261,4.24582 3.714898,12.3945 4.489272,15.08125 0.96514,3.34863 1.785874,4.88859 2.882851,5.40914 0.94738,0.44956 1.03413,0.59991 0.7593,1.3161 -0.13912,0.36253 -0.87631,0.4185 -5.512149,0.4185 -2.943355,0 -5.413883,-0.0623 -5.490064,-0.13851 -0.07618,-0.0762 -0.08455,-0.42078 -0.0186,-0.76578 0.08025,-0.41981 0.352124,-0.67484 0.822018,-0.7711 1.791904,-0.3671 2.100443,-1.38439 1.264812,-4.17027 -0.779957,-2.60027 -0.486135,-2.4771 -6.134177,-2.57162 -3.318692,-0.0555 -5.1967,0.0178 -5.690034,0.22212 -0.988012,0.40925 -2.697102,3.6066 -2.579447,4.82562 0.06551,0.67873 0.274394,0.94921 1.008661,1.30608 0.509323,0.24755 1.119685,0.50606 1.356357,0.57446 0.302668,0.0875 0.391626,0.32678 0.299887,0.80669 l -0.130432,0.68231 h -4.616939 -4.616937 z m 19.182321,-10.03967 c 0.296691,-0.77316 -2.683026,-10.68438 -3.21216,-10.68438 -0.437754,0 -6.066714,10.46858 -5.832624,10.84735 0.09875,0.15978 1.895864,0.26515 4.522185,0.26515 3.771349,0 4.380439,-0.0577 4.522599,-0.42812 z m 19.041995,-31.32188 -0.66789,-0.79375 H 67.541353 c -11.833444,0 -12.724532,-0.0319 -12.951388,-0.46302 -0.339845,-0.64591 0.109569,-5.484505 0.766196,-8.249265 1.02561,-4.31836 3.03285,-8.85651 5.346099,-12.08692 0.928704,-1.29692 1.081786,-1.69495 1.022522,-2.65866 -0.05625,-0.91463 0.05943,-1.26252 0.599258,-1.80235 0.367924,-0.36793 0.942258,-0.67098 1.276294,-0.67345 0.480955,-0.004 0.821246,-0.40273 1.635263,-1.91823 3.263469,-6.07576 7.302821,-10.30893 11.298391,-11.84051 1.23085,-0.47181 1.5621,-0.75975 2.35806,-2.04979 1.30208,-2.11033 4.87609,-5.65774 6.48229,-6.43404 1.0606,-0.51261 1.74263,-0.6394 3.43958,-0.6394 1.80439,0 2.35088,0.11456 3.70418,0.77649 3.67766,1.79884 7.718432,7.22707 9.935502,13.34699 0.57023,1.57405 0.70135,1.72966 1.94144,2.30421 0.73145,0.33888 1.3645,0.58156 1.40677,0.53929 0.0423,-0.0423 0.41574,-1.19823 0.82993,-2.5688 0.41418,-1.37056 1.02703,-3.12324 1.36189,-3.89484 0.5346,-1.23185 0.69286,-1.39317 1.2979,-1.32292 0.62572,0.0726 0.69722,0.20162 0.77775,1.40292 0.0488,0.7276 -0.11438,2.90079 -0.36257,4.82931 -0.55915,4.3448 -0.43513,4.65291 1.4035,3.48688 2.67891,-1.69892 6.00296,-2.54022 8.21894,-2.08019 4.41398,0.91634 5.66663,6.88844 3.35568,15.99846 l -0.63477,2.50232 0.60601,1.78682 c 0.9444,2.78456 1.56289,6.31308 1.58856,9.062865 l 0.0235,2.51354 -19.56845,0.0679 -19.568462,0.0679 -0.7234,0.79203 c -1.02539,1.12265 -2.54529,1.12191 -3.49076,-0.002 z M 61.25162,101.39688 c 0.06484,-0.10914 0.20301,-1.06164 0.307052,-2.116675 l 0.189163,-1.91822 h -2.65707 c -1.461389,0 -2.708246,0.0893 -2.770791,0.19843 -0.06255,0.10914 -0.195844,1.06164 -0.296219,2.11667 l -0.182499,1.918235 h 2.646238 c 1.455433,0 2.69929,-0.0893 2.764126,-0.19844 z m 7.060007,-0.92604 c 0.0016,-0.618465 0.07744,-1.575475 0.168534,-2.126685 l 0.165624,-1.00221 -2.597475,0.0762 c -2.943329,0.0863 -2.774596,-0.065 -3.108402,2.788155 l -0.162513,1.38906 h 2.765658 2.765661 l 0.0029,-1.12448 z m 6.706431,0.13229 c 0.0902,-0.5457 0.16531,-1.498205 0.16691,-2.116675 l 0.003,-1.12447 h -2.50155 -2.501555 l -0.130037,0.85989 c -0.07152,0.47294 -0.193699,1.42544 -0.27151,2.116675 l -0.141476,1.25677 h 2.606158 2.60615 z m 5.9703,0.17809 c 0.6886,-0.6886 0.81411,-1.014925 0.81411,-2.116675 v -1.30256 h -2.51355 c -2.27083,0 -2.51354,0.0473 -2.51354,0.49035 0,0.2697 -0.0765,1.2222 -0.16998,2.11667 l -0.16998,1.626315 h 1.86942 c 1.73474,0 1.92807,-0.0587 2.68352,-0.8141 z m 7.69327,-1.312875 v -2.12697 l -2.3151,0.0765 -2.31511,0.0764 -0.2436,1.26117 c -0.21787,1.12795 -0.18294,1.317695 0.33073,1.796245 0.31588,0.29429 0.57433,0.6495 0.57433,0.78935 0,0.14005 0.89147,0.25428 1.98438,0.25428 h 1.98437 z m 6.87917,0.0103 v -2.11666 h -2.64583 -2.64584 v 2.11666 2.116675 h 2.64584 2.64583 z m 6.659642,0.19844 c -0.0575,-1.05502 -0.14549,-1.96265 -0.19555,-2.01693 -0.05,-0.0543 -1.16777,-0.1601 -2.483802,-0.23514 l -2.39279,-0.13642 v 2.15336 2.153375 h 2.58834 2.588342 l -0.10454,-1.918235 z m 6.83411,0.721945 c 0,-1.004635 -0.10132,-1.242465 -0.63239,-1.484435 -0.34781,-0.15848 -0.78737,-0.57773 -0.9768,-0.93168 -0.31492,-0.58844 -0.48165,-0.63691 -1.9473,-0.56609 l -1.60288,0.0775 -0.0798,1.69192 c -0.0439,0.930565 -0.0178,1.853295 0.0579,2.050525 0.10247,0.26703 0.78152,0.3586 2.65945,0.3586 h 2.52184 z m 6.77994,-0.689045 c -0.0964,-1.03694 -0.2487,-2.00422 -0.3385,-2.14952 -0.10028,-0.16225 -0.8288,-0.196 -1.88801,-0.0875 -2.32116,0.23781 -2.95507,0.82289 -2.96135,2.733285 l -0.005,1.38906 h 2.68383 2.68383 z m 6.97548,0.760865 c -0.002,-0.618465 -0.0767,-1.570965 -0.16691,-2.116675 l -0.16399,-0.99218 h -2.56712 c -1.41192,0 -2.61886,0.0517 -2.6821,0.11498 -0.0632,0.0632 3e-5,1.01574 0.14061,2.11666 l 0.25559,2.001695 h 2.59342 2.59342 l -0.003,-1.12448 z M 62.460343,94.509705 c 0.310978,-1.1649 0.314843,-1.50567 0.02326,-2.05052 -0.33038,-0.6173 -0.475892,-0.65344 -2.630932,-0.65344 h -2.281208 l -0.452207,1.69707 c -0.722014,2.70964 -0.852898,2.56592 2.257962,2.47937 l 2.710169,-0.0754 z m 6.377537,1.44567 c 0,-0.22395 0.575639,-3.28163 0.69404,-3.68661 0.117054,-0.40038 -0.05724,-0.46302 -1.288167,-0.46302 -1.236326,0 -1.523545,0.10438 -2.183998,0.79375 -0.418253,0.43656 -0.970714,0.79375 -1.22769,0.79375 -0.314534,0 -0.557279,0.32425 -0.742773,0.99218 -0.468169,1.6858 -0.511619,1.65365 2.235047,1.65365 1.382448,0 2.513541,-0.0377 2.513541,-0.0837 z m 6.785878,-2.03297 0.24653,-2.11666 h -2.31538 -2.315381 l -0.264054,0.99218 c -0.145232,0.54571 -0.34363,1.49821 -0.440891,2.11667 l -0.176834,1.12448 h 2.50975 2.50974 z m 6.18232,0.59531 c 0.002,-0.83674 0.0754,-1.78924 0.16315,-2.11666 0.15677,-0.585 0.11839,-0.59531 -2.21572,-0.59531 h -2.37525 l -0.16685,1.38906 c -0.0918,0.76398 -0.16788,1.71648 -0.16915,2.11666 l -0.002,0.72761 h 2.38125 2.38125 l 0.004,-1.52136 z m 6.87555,-0.59531 v -2.11666 h -1.42263 -1.42262 l -0.56772,1.31969 c -0.31225,0.72584 -0.63945,1.67834 -0.72711,2.11667 l -0.1594,0.79697 h 2.14974 2.14974 z m 6.87917,0.82683 c 0,-0.70942 -0.0744,-1.66192 -0.16536,-2.11667 l -0.16537,-0.82682 h -2.48046 -2.48048 v 2.11666 2.11667 h 2.64584 2.64583 z m 6.224652,-0.36381 c -0.29244,-2.72744 -0.13948,-2.57968 -2.670602,-2.57968 h -2.23113 l 0.003,1.12447 c 0.002,0.61847 0.0767,1.57097 0.16691,2.11667 l 0.164,0.99219 h 2.37261 2.372612 l -0.17731,-1.65365 z m 5.89605,0.87113 c 0.52449,-0.70942 0.55181,-0.90714 0.29241,-2.11666 l -0.28612,-1.33415 h -2.38035 -2.38035 l 0.13931,0.7276 c 0.0766,0.40018 0.21632,1.35268 0.31044,2.11667 l 0.17112,1.38906 h 1.7775 c 1.66253,0 1.81492,-0.0506 2.35604,-0.78252 z m 7.34371,0.0549 c -0.63289,-2.67524 -0.97654,-3.50572 -1.45068,-3.50572 -0.34769,0 -0.54055,0.25699 -0.65644,0.87473 -0.0903,0.4811 -0.3973,1.33215 -0.68233,1.89122 -0.28503,0.55906 -0.45553,1.11793 -0.3789,1.24193 0.0766,0.124 0.8596,0.22545 1.73991,0.22545 h 1.60057 z m 7.10253,0 c -0.0913,-0.40018 -0.34017,-1.35268 -0.55298,-2.11666 l -0.38692,-1.38906 h -2.72903 -2.72902 l 0.53157,2.11666 0.53157,2.11667 h 2.75043 2.75044 z m -11.07531,-1.77743 c 0.62154,-1.48755 0.52459,-1.72829 -0.69598,-1.72829 -1.07685,0 -1.07896,0.002 -0.90629,0.85989 0.3075,1.52782 0.42693,1.78594 0.82635,1.78594 0.2159,0 0.56506,-0.4129 0.77592,-0.91754 z m -27.172942,-0.93454 c 0.22446,-0.64389 0.20437,-0.79375 -0.10641,-0.79375 -0.24929,0 -0.38311,0.27725 -0.38311,0.79375 0,0.43656 0.0479,0.79375 0.1064,0.79375 0.0585,0 0.23093,-0.35719 0.38312,-0.79375 z m -21.16773,-3.175 c 0.436562,-0.43657 0.965327,-0.79375 1.175033,-0.79375 0.318627,0 1.246923,-1.8286 1.246923,-2.45625 0,-0.10427 -1.104985,-0.18959 -2.455521,-0.18959 h -2.455524 l -0.98406,1.98875 c -0.541234,1.09382 -0.984062,2.04632 -0.984062,2.11667 0,0.0704 0.824278,0.12792 1.831732,0.12792 1.682477,0 1.896406,-0.0647 2.625479,-0.79375 z m 7.789534,-0.99219 c 0.631015,-2.46222 0.635344,-2.4474 -0.714944,-2.4474 -1.120632,0 -1.217477,0.0656 -2.37849,1.61005 -0.992249,1.31998 -1.161447,1.70132 -0.93916,2.11667 0.222665,0.41605 0.566428,0.50662 1.923016,0.50662 h 1.651878 z m 5.963776,0.10178 c 0.50208,-2.72494 0.59987,-2.5825 -1.71232,-2.49416 l -2.02264,0.0773 -0.591,2.05052 -0.590989,2.05053 h 2.303309 2.30332 z m 5.60489,0.55968 c 0.002,-0.61847 0.0776,-1.57652 0.16891,-2.129 l 0.166,-1.00452 -1.95485,0.0785 -1.95484,0.0785 -0.43181,2.05052 -0.4318,2.05053 h 2.21774 2.21774 l 0.003,-1.12448 z m 3.60436,0 c 0.38693,-0.61847 1.06639,-1.5412 1.50993,-2.05052 l 0.80643,-0.92605 -1.94632,-0.0786 c -1.37802,-0.0557 -2.00987,0.0216 -2.16401,0.26458 -0.11973,0.18876 -0.21952,1.14686 -0.22175,2.12913 -0.004,1.72729 0.0176,1.78594 0.65409,1.78594 0.48754,0 0.84049,-0.29149 1.36163,-1.12448 z m 3.00731,-0.10716 c 0,-1.15664 -0.0282,-1.20605 -0.46302,-0.8115 -0.25466,0.23108 -0.67811,0.78531 -0.941,1.23163 l -0.47798,0.81151 h 0.941 0.941 z m 6.61459,0.34252 c 0,-0.48901 -0.0757,-1.44151 -0.16825,-2.11666 l -0.16826,-1.22756 h -2.34529 -2.34529 v 2.11667 2.11667 h 2.51355 2.51354 z m 5.683992,-0.23966 c -0.0931,-0.62082 -0.25373,-1.54355 -0.35697,-2.05052 l -0.18769,-0.92175 -1.908212,-0.0777 -1.9082,-0.0777 0.002,0.7392 c 0.001,0.40655 0.0774,1.36427 0.16914,2.12825 l 0.16685,1.38907 h 2.09602 2.096032 l -0.16927,-1.12878 z m 6.10186,0.40117 c -0.0978,-0.40018 -0.35725,-1.35268 -0.57662,-2.11667 l -0.39886,-1.38906 h -1.9656 c -2.23772,0 -2.1442,-0.14292 -1.67386,2.55802 l 0.29175,1.67532 h 2.25048 2.25048 z m 4.42861,-0.26458 c -0.086,-0.5457 -0.29165,-1.46844 -0.45691,-2.05052 l -0.30048,-1.05834 -1.54459,-0.0803 c -1.33605,-0.0695 -1.52229,-0.0223 -1.37947,0.34991 0.0908,0.23666 0.36902,1.19555 0.61826,2.13088 l 0.45314,1.70061 h 1.38324 1.38325 z m 1.8095,0.28443 c -0.23059,-0.39655 -0.28222,-0.40798 -0.28883,-0.064 -0.009,0.44558 0.26966,0.84678 0.45718,0.65926 0.0619,-0.0619 -0.0139,-0.32974 -0.16835,-0.59531 z m 7.11146,0.43657 c 0,-0.14916 -0.41822,-1.10166 -0.92937,-2.11667 l -0.92937,-1.84548 h -2.37792 c -1.3127,0 -2.37793,0.11175 -2.37793,0.24945 0,0.13719 0.31146,1.08969 0.69212,2.11667 l 0.69211,1.86722 h 2.61518 c 1.60953,0 2.61518,-0.10429 2.61518,-0.27119 z m 1.45211,-6.94781 c 0.69181,-4.9353 0.41803,-7.48517 -0.97388,-9.07047 -1.59589,-1.81761 -3.97961,-1.79411 -7.779,0.0767 l -1.8768,0.92412 2.44442,2.36476 c 2.57773,2.49371 5.18587,5.90795 6.53769,8.55828 l 0.80971,1.5875 0.21895,-0.79375 c 0.12042,-0.43656 0.39893,-2.07776 0.61891,-3.64712 z m -54.83217,-0.59004 0.991826,-1.98055 h -0.773034 c -0.512934,0 -1.051086,0.27805 -1.599414,0.82638 -0.696701,0.6967 -0.967957,0.8034 -1.728618,0.67996 -0.839991,-0.13631 -0.966901,-0.0564 -1.83937,1.158 l -0.937125,1.30441 2.446954,-0.004 2.446956,-0.004 0.991825,-1.98055 z m 2.671258,0.59914 c 0.914524,-0.76398 2.01227,-1.65034 2.43943,-1.96967 l 0.77665,-0.58062 -1.509679,-0.0147 -1.509684,-0.0147 -1.070004,1.8321 c -1.554091,2.66098 -1.486445,2.71889 0.873287,0.74759 z m 2.24568,0.71931 c 0.27723,-0.60846 0.26096,-0.6461 -0.17773,-0.41132 -0.265587,0.14214 -0.636502,0.44353 -0.824253,0.66975 -0.289036,0.34827 -0.261792,0.41132 0.177729,0.41132 0.298659,0 0.648684,-0.28441 0.824254,-0.66975 z m 5.77881,-1.24848 0.52236,-1.91823 -0.91348,-0.0841 c -0.94934,-0.0874 -2.23198,0.31699 -2.66677,0.84087 -0.13828,0.16661 -0.49767,0.92771 -0.79866,1.69133 l -0.54726,1.3884 h 1.94073 1.94073 z m 4.70414,1.5875 c 0.0568,-0.1819 0.17871,-1.081 0.27097,-1.99801 l 0.16772,-1.66729 -1.51306,0.0798 -1.51305,0.0798 -0.48497,1.7198 c -0.26673,0.94588 -0.48543,1.80908 -0.486,1.91822 -0.002,0.3566 3.4458,0.22842 3.55839,-0.13229 z m 6.23016,-1.65364 v -1.98438 h -2.10468 -2.10467 l -0.13046,0.8599 c -0.0717,0.47294 -0.19762,1.36591 -0.2797,1.98437 l -0.14924,1.12448 h 2.38437 2.38438 z m 6.15018,1.32291 c -0.15428,-0.80707 -0.19872,-0.80687 -1.51996,0.007 l -1.05834,0.65184 1.35237,0.001 c 1.30013,0.001 1.34749,-0.0242 1.22593,-0.66011 z m 5.1282,0.19844 c -0.0739,-0.25466 -0.26675,-0.97509 -0.42853,-1.60094 -0.32036,-1.23932 -0.33491,-1.24203 -2.31703,-0.43139 -0.77075,0.31523 -0.8599,0.4628 -0.8599,1.42352 v 1.07183 h 1.86992 c 1.65567,0 1.854512,-0.0531 1.73554,-0.46302 z m 5.160582,-0.64995 c -0.3658,-0.86131 -0.66315,-1.16233 -1.31503,-1.33125 -0.46329,-0.12005 -0.98872,-0.45265 -1.16761,-0.73911 -0.20141,-0.3225 -0.61588,-0.52083 -1.08845,-0.52083 -0.83541,0 -0.84326,0.13759 -0.15393,2.69756 l 0.27105,1.0066 h 1.96332 1.96333 z m 4.20802,0.33253 c -0.76846,-1.07921 -2.67895,-2.67576 -2.97958,-2.48996 -0.28028,0.17322 -0.14321,0.86808 0.45243,2.29365 0.39413,0.9433 0.45392,0.97675 1.74549,0.97675 h 1.33739 z m 8.03824,0.44971 c -0.10208,-0.1819 -0.73418,-1.0719 -1.40468,-1.97778 l -1.21907,-1.64706 -1.94028,-0.007 c -1.06716,-0.004 -1.90059,0.0905 -1.85208,0.20916 0.0485,0.11865 0.50491,1.01118 1.01423,1.98339 l 0.92604,1.76765 2.33072,10e-4 c 1.78738,8e-4 2.28745,-0.0761 2.14512,-0.32975 z m -25.454842,-1.27183 c 0.53977,-0.38806 1.34344,-0.85552 1.78593,-1.03881 0.49257,-0.20402 0.80453,-0.52599 0.80453,-0.83031 0,-0.44494 -0.22195,-0.49707 -2.11667,-0.49707 h -2.11667 v 1.73541 c 0,1.89582 -0.0761,1.86659 1.64288,0.63078 z m 17.407132,-1.83702 c -0.15576,-0.29104 -0.41653,-0.52917 -0.57949,-0.52917 -0.16295,0 -0.0808,0.23813 0.18261,0.52917 0.26339,0.29104 0.52416,0.52917 0.57948,0.52917 0.0553,0 -0.0268,-0.23813 -0.1826,-0.52917 z m -39.3995,-3.2412 c 0.473906,-0.61846 1.28198,-1.57096 1.795718,-2.11666 l 0.93408,-0.99219 h -0.94169 c -0.670608,0 -1.314422,0.27794 -2.236508,0.96551 -1.559428,1.16282 -3.279193,2.76602 -3.279193,3.05694 0,0.11598 0.64484,0.21088 1.432976,0.21088 1.374304,0 1.468254,-0.046 2.294617,-1.12448 z m 4.637198,0.26459 c 0.24248,-0.47295 0.78132,-1.3576 1.19742,-1.96591 0.41609,-0.6083 0.75654,-1.17384 0.75654,-1.25677 0,-0.0829 -0.40708,-0.15076 -0.90461,-0.15076 -0.78513,0 -1.13458,0.25197 -2.64584,1.90781 -0.95767,1.0493 -1.741217,2.0018 -1.741217,2.11667 0,0.11487 0.651787,0.20885 1.448417,0.20885 1.36728,0 1.47311,-0.0482 1.88929,-0.85989 z m 8.56854,0.61695 c 0,-0.13362 0.071,-0.42796 0.15777,-0.65408 0.14154,-0.36884 0.0258,-0.36745 -1.12448,0.0135 -1.8642,0.61741 -1.98742,0.8835 -0.40912,0.8835 0.75671,0 1.37583,-0.10932 1.37583,-0.24294 z m 5.55625,-0.90388 v -1.14682 l -1.75988,0.28867 c -1.35251,0.22184 -1.80755,0.41075 -1.96578,0.81609 -0.43483,1.11387 -0.32496,1.18888 1.74129,1.18888 h 1.98437 z m 5.46639,0.6838 c -0.069,-0.25466 -0.1984,-0.79044 -0.28746,-1.19062 -0.15628,-0.70225 -0.22168,-0.72761 -1.87667,-0.72761 h -1.71476 v 1.19063 1.19062 h 2.00221 c 1.7783,0 1.98817,-0.0518 1.87668,-0.46302 z m 4.0188,-0.33121 c -0.33162,-0.95128 -0.3268,-0.94802 -1.74678,-1.18299 -0.87912,-0.14547 -1.10091,-0.10875 -1.01429,0.16792 0.061,0.19475 0.1826,0.68152 0.27029,1.0817 0.14763,0.67377 0.25591,0.7276 1.46354,0.7276 h 1.30411 z m 3.214822,0.55361 c -0.21828,-0.12349 -0.66402,-0.30625 -0.99053,-0.40613 -0.469542,-0.14364 -0.560422,-0.095 -0.434712,0.23258 0.0987,0.25708 0.474342,0.41112 0.990522,0.40613 0.59339,-0.006 0.71791,-0.0724 0.43472,-0.23258 z m 6.1768,-0.16743 c -0.17329,-0.45159 -0.6612,-0.39605 -0.8245,0.0939 -0.0582,0.17448 0.13668,0.31419 0.43818,0.31419 0.3805,0 0.49607,-0.12207 0.38632,-0.40805 z m 4.00966,-1.05105 c -0.87313,-0.79116 -1.64704,-1.4374 -1.7198,-1.43609 -0.0728,0.001 -0.41476,0.23767 -0.76,0.52524 l -0.6277,0.52286 0.6277,0.92174 c 0.60996,0.89567 0.67635,0.92149 2.3475,0.91323 l 1.7198,-0.009 -1.5875,-1.43847 z m -33.638832,0.51585 c 1.26153,-0.57755 1.56197,-0.85853 2.01634,-1.88572 0.29367,-0.66387 0.53394,-1.25144 0.53394,-1.3057 0,-0.0543 -0.40672,-0.0987 -0.90381,-0.0987 -0.73142,0 -1.05037,0.18925 -1.67217,0.99219 -1.12965,1.45872 -2.00209,2.97656 -1.71091,2.97656 0.13981,0 0.92128,-0.3054 1.73661,-0.67867 z m 23.187782,-2.09946 c -0.70381,-1.02296 -0.94778,-1.19062 -1.732502,-1.19062 -0.99554,0 -1.10029,0.17234 -0.55667,0.91579 0.29999,0.41025 2.183942,1.34535 2.897202,1.43802 0.11613,0.0151 -0.15748,-0.50834 -0.60803,-1.16319 z m -17.793232,0.10351 c 0.34802,-0.13019 0.59531,-0.44523 0.59531,-0.75842 0,-0.41782 -0.17318,-0.53571 -0.78695,-0.53571 -0.60385,0 -0.88088,0.18163 -1.19063,0.78061 -0.62958,1.21749 -0.56431,1.24174 1.38227,0.51352 z m -10.64474,-4.23933 c 1.53341,-0.80259 1.62628,-0.91161 2.51354,-2.95023 0.50672,-1.16427 1.07447,-2.467 1.26167,-2.89497 l 0.34037,-0.77812 -1.36461,0.74271 c -2.67424,1.45551 -5.593434,4.63937 -8.158141,8.8978 l -0.601083,0.99804 2.208009,-1.59092 c 1.214403,-0.87501 2.924515,-1.96595 3.800245,-2.42431 z m 35.341952,3.72567 c 0.73871,-0.39534 0.37213,-0.78047 -0.74289,-0.78047 -0.93467,0 -0.943,0.009 -0.47254,0.52917 0.55782,0.61639 0.54011,0.61272 1.21543,0.2513 z m -19.471692,-0.56328 c 0.16483,-0.15341 -0.32605,-0.21583 -1.30201,-0.16557 -0.9892,0.0509 -1.60836,0.20721 -1.6799,0.42399 -0.0881,0.26696 0.20154,0.30379 1.30202,0.16557 0.77842,-0.0978 1.53437,-0.28856 1.67989,-0.42399 z m 8.26983,0.24583 c -0.0597,-0.1819 -0.57569,-0.36845 -1.14653,-0.41456 -1.05958,-0.0856 -1.04541,0.30025 0.0205,0.55662 0.95349,0.22935 1.23636,0.19366 1.12607,-0.14206 z m -4.23019,-0.38749 c -0.39758,-0.0604 -1.11196,-0.0616 -1.5875,-0.003 -0.47555,0.0589 -0.15026,0.10828 0.72287,0.10977 0.87312,0.002 1.26221,-0.0467 0.86463,-0.10707 z m -17.89651,-2.10322 c 0.33215,-0.40266 0.30671,-0.41088 -0.29834,-0.0965 -0.887,0.46095 -0.95377,0.53665 -0.47337,0.53665 0.22472,0 0.57198,-0.19809 0.77171,-0.44019 z m 4.08393,-0.38564 0.77711,-0.82583 -0.79375,0.40879 c -0.43657,0.22483 -1.03188,0.59267 -1.32292,0.81742 -0.52761,0.40742 -0.52756,0.40865 0.0166,0.41704 0.3002,0.005 0.89551,-0.36321 1.32292,-0.81742 z m 3.4053,-0.28177 0.77612,-1.0963 -0.85808,0.50664 c -0.47194,0.27865 -1.10984,0.77452 -1.41755,1.10195 l -0.55947,0.59531 0.64144,-0.006 c 0.44732,-0.004 0.87629,-0.33741 1.41754,-1.10195 z m 3.00594,-0.28483 0.60704,-1.37995 -0.95949,0.92317 c -0.52772,0.50774 -1.07297,1.13153 -1.21167,1.38619 -0.20693,0.37995 -0.14369,0.4619 0.35245,0.45678 0.47258,-0.005 0.73719,-0.30759 1.21167,-1.38619 z m 3.49399,-0.49205 c 0,-1.71472 -0.039,-1.85212 -0.43286,-1.52524 -0.53981,0.448 -1.54416,2.0225 -1.79527,2.81441 -0.17695,0.55802 -0.11308,0.59531 1.01968,0.59531 h 1.20845 z m 3.96876,1.67434 c 0,-0.40196 -1.72194,-3.06168 -2.05053,-3.16727 -0.24185,-0.0777 -0.33073,0.3618 -0.33073,1.63557 v 1.74184 h 1.19063 c 0.65485,0 1.19063,-0.0946 1.19063,-0.21014 z m 2.42513,-0.51747 c -0.28672,-0.40018 -0.82817,-1.01395 -1.20321,-1.36393 l -0.68189,-0.63633 0.57624,1.36394 c 0.4632,1.09634 0.69926,1.36393 1.20321,1.36393 h 0.62697 z m 3.13112,0.18513 c -0.36381,-0.29189 -1.00222,-0.7831 -1.41871,-1.09158 l -0.75726,-0.56086 0.72627,1.09746 c 0.54755,0.8274 0.89666,1.09601 1.41871,1.09157 l 0.69245,-0.006 -0.66146,-0.53071 z m 3.439582,0.26498 c -0.21828,-0.14816 -0.635,-0.40179 -0.92604,-0.56361 -0.52232,-0.29041 -0.52264,-0.28688 -0.0251,0.27344 0.27722,0.31222 0.69394,0.56585 0.92604,0.56362 0.36991,-0.004 0.37302,-0.0373 0.0251,-0.27345 z m 3.43958,0.17352 c 0,-0.0572 -0.18477,-0.17489 -0.41061,-0.26156 -0.23546,-0.0904 -0.34167,-0.046 -0.24897,0.10399 0.15538,0.2514 0.65958,0.37185 0.65958,0.15757 z m 2.99075,-2.54185 0.14946,-1.45521 -0.50975,1.54989 c -0.28036,0.85244 -0.43464,1.6714 -0.34286,1.81991 0.26549,0.42958 0.53882,-0.31465 0.70315,-1.91459 z m -28.724592,-1.46448 c 3.43578,-0.99814 6.54819,-1.44382 10.12342,-1.44961 l 3.3073,-0.005 -1.32292,-0.78775 c -3.44416,-2.05087 -7.81956,-3.12969 -10.76759,-2.65493 -1.85469,0.29869 -1.91142,0.35838 -3.36876,3.545 -0.83683,1.82979 -0.97055,2.30328 -0.61118,2.16407 0.25302,-0.098 1.44089,-0.46315 2.63973,-0.81143 z m 21.765092,0.19638 c 0,-0.11537 -0.70875,-1.63342 -1.575012,-3.37344 -4.17513,-8.38642 -8.89028,-11.51387 -13.72023,-9.10031 -1.63517,0.8171 -4.14431,3.24093 -5.15878,4.98337 l -0.47798,0.82098 h 2.22159 c 1.34239,0 3.02614,0.20576 4.25455,0.51994 2.29189,0.58616 6.00338,2.40931 8.12063,3.98899 0.77821,0.58062 1.89691,1.17927 2.48601,1.33033 0.5891,0.15106 1.54735,0.43744 2.12943,0.63639 1.250722,0.42749 1.719792,0.48034 1.719792,0.19375 z"
       id="path179" />
  </g>
</svg>
